{
  "accessors": [
    {
      "bufferView": 2,
      "componentType": 5126,
      "count": 6997,
      "max": [
        7.559865474700928,
        10.019824028015137,
        3.339686632156372
      ],
      "min": [
        -8.74380874633789,
        -10.019822120666504,
        0.25080206990242004
      ],
      "type": "VEC3"
    },
    {
      "bufferView": 2,
      "byteOffset": 83964,
      "componentType": 5126,
      "count": 6997,
      "max": [
        0.9999603033065796,
        1.0,
        0.9998642206192017
      ],
      "min": [
        -0.9997744560241699,
        -1.0,
        -0.9999921321868896
      ],
      "type": "VEC3"
    },
    {
      "bufferView": 1,
      "componentType": 5126,
      "count": 6997,
      "max": [
        0.9926957488059998,
        0.991701602935791
      ],
      "min": [
        -4.51505184173584e-06,
        0.0029503703117370605
      ],
      "type": "VEC2"
    },
    {
      "bufferView": 0,
      "componentType": 5125,
      "count": 30480,
      "type": "SCALAR"
    }
  ],
  "asset": {
    "extras": {
      "author": "JFelipe_FP (https://sketchfab.com/jfelipefp32)",
      "license": "CC-BY-4.0 (http://creativecommons.org/licenses/by/4.0/)",
      "source": "https://sketchfab.com/3d-models/mach-5-068ace7a8d294a7abcdf79930a43a0c8",
      "title": "Mach 5"
    },
    "generator": "Sketchfab-12.68.0",
    "version": "2.0"
  },
  "bufferViews": [
    {
      "buffer": 0,
      "byteLength": 121920,
      "name": "floatBufferViews",
      "target": 34963
    },
    {
      "buffer": 0,
      "byteLength": 55976,
      "byteOffset": 121920,
      "byteStride": 8,
      "name": "floatBufferViews",
      "target": 34962
    },
    {
      "buffer": 0,
      "byteLength": 167928,
      "byteOffset": 177896,
      "byteStride": 12,
      "name": "floatBufferViews",
      "target": 34962
    }
  ],
  "buffers": [
    {
      "byteLength": 345824,
      "uri": "scene.bin"
    }
  ],
  "extensionsUsed": [
    "KHR_materials_unlit"
  ],
  "images": [
    {
      "uri": "textures/Material.002_baseColor.png"
    }
  ],
  "materials": [
    {
      "doubleSided": true,
      "extensions": {
        "KHR_materials_unlit": {}
      },
      "name": "Material.002",
      "pbrMetallicRoughness": {
        "baseColorTexture": {
          "index": 0
        },
        "metallicFactor": 0.0
      }
    }
  ],
  "meshes": [
    {
      "name": "Object_0",
      "primitives": [
        {
          "attributes": {
            "NORMAL": 1,
            "POSITION": 0,
            "TEXCOORD_0": 2
          },
          "indices": 3,
          "material": 0,
          "mode": 4
        }
      ]
    }
  ],
  "nodes": [
    {
      "children": [
        1
      ],
      "matrix": [
        1.0,
        0.0,
        0.0,
        0.0,
        0.0,
        2.220446049250313e-16,
        -1.0,
        0.0,
        0.0,
        1.0,
        2.220446049250313e-16,
        0.0,
        0.0,
        0.0,
        0.0,
        1.0
      ],
      "name": "Sketchfab_model"
    },
    {
      "children": [
        2
      ],
      "name": "root"
    },
    {
      "children": [
        3
      ],
      "matrix": [
        1.0,
        0.0,
        0.0,
        0.0,
        0.0,
        2.220446049250313e-16,
        1.0,
        0.0,
        0.0,
        -1.0,
        2.220446049250313e-16,
        0.0,
        0.0,
        0.0,
        0.0,
        1.0
      ],
      "name": "GLTF_SceneRootNode"
    },
    {
      "children": [
        4
      ],
      "matrix": [
        0.20619605602646263,
        0.0003833848658146098,
        6.789472288407008e-11,
        0.0,
        2.332580667657255e-11,
        2.168346845826833e-14,
        -0.07084052264690399,
        0.0,
        -0.0003833848658146098,
        0.20619605602646263,
        -6.31372404936568e-14,
        0.0,
        0.0,
        -0.049084726721048355,
        0.0,
        1.0
      ],
      "name": "mach 5.004_0"
    },
    {
      "mesh": 0,
      "name": "Object_4"
    }
  ],
  "samplers": [
    {
      "magFilter": 9729,
      "minFilter": 9987,
      "wrapS": 10497,
      "wrapT": 10497
    }
  ],
  "scene": 0,
  "scenes": [
    {
      "name": "Sketchfab_Scene",
      "nodes": [
        0
      ]
    }
  ],
  "textures": [
    {
      "sampler": 0,
      "source": 0
    }
  ]
}
