{
  "accessors": [
    {
      "bufferView": 1,
      "componentType": 5126,
      "count": 2181,
      "max": [
        1.3219521045684814,
        2.781008243560791,
        0.8924092650413513
      ],
      "min": [
        -1.3219521045684814,
        -3.311666250228882,
        -0.8747076392173767
      ],
      "type": "VEC3"
    },
    {
      "bufferView": 1,
      "byteOffset": 26172,
      "componentType": 5126,
      "count": 2181,
      "type": "VEC3"
    },
    {
      "bufferView": 0,
      "componentType": 5125,
      "count": 7986,
      "type": "SCALAR"
    },
    {
      "bufferView": 1,
      "byteOffset": 52344,
      "componentType": 5126,
      "count": 1293,
      "max": [
        1.224242925643921,
        2.75844144821167,
        0.8628362417221069
      ],
      "min": [
        -1.2242428064346313,
        -3.3116471767425537,
        -1.1002763509750366
      ],
      "type": "VEC3"
    },
    {
      "bufferView": 1,
      "byteOffset": 67860,
      "componentType": 5126,
      "count": 1293,
      "type": "VEC3"
    },
    {
      "bufferView": 0,
      "byteOffset": 31944,
      "componentType": 5125,
      "count": 5268,
      "type": "SCALAR"
    },
    {
      "bufferView": 1,
      "byteOffset": 83376,
      "componentType": 5126,
      "count": 188,
      "max": [
        1.0566208362579346,
        2.17388916015625,
        0.7847772836685181
      ],
      "min": [
        -1.0566208362579346,
        -1.8042662143707275,
        0.17358805239200592
      ],
      "type": "VEC3"
    },
    {
      "bufferView": 1,
      "byteOffset": 85632,
      "componentType": 5126,
      "count": 188,
      "type": "VEC3"
    },
    {
      "bufferView": 0,
      "byteOffset": 53016,
      "componentType": 5125,
      "count": 744,
      "type": "SCALAR"
    },
    {
      "bufferView": 1,
      "byteOffset": 87888,
      "componentType": 5126,
      "count": 5382,
      "max": [
        1.308625340461731,
        2.634958505630493,
        0.3805463910102844
      ],
      "min": [
        -1.308625340461731,
        -3.08789324760437,
        -1.020632028579712
      ],
      "type": "VEC3"
    },
    {
      "bufferView": 1,
      "byteOffset": 152472,
      "componentType": 5126,
      "count": 5382,
      "type": "VEC3"
    },
    {
      "bufferView": 0,
      "byteOffset": 55992,
      "componentType": 5125,
      "count": 16464,
      "type": "SCALAR"
    },
    {
      "bufferView": 1,
      "byteOffset": 217056,
      "componentType": 5126,
      "count": 92,
      "max": [
        1.119443416595459,
        -2.650510311126709,
        -0.06454845517873764
      ],
      "min": [
        -1.119443416595459,
        -3.1928606033325195,
        -0.6851787567138672
      ],
      "type": "VEC3"
    },
    {
      "bufferView": 1,
      "byteOffset": 218160,
      "componentType": 5126,
      "count": 92,
      "type": "VEC3"
    },
    {
      "bufferView": 0,
      "byteOffset": 121848,
      "componentType": 5125,
      "count": 360,
      "type": "SCALAR"
    },
    {
      "bufferView": 1,
      "byteOffset": 219264,
      "componentType": 5126,
      "count": 48,
      "max": [
        1.0794963836669922,
        2.6545372009277344,
        0.2879762649536133
      ],
      "min": [
        -1.0794963836669922,
        2.261241912841797,
        0.05650695413351059
      ],
      "type": "VEC3"
    },
    {
      "bufferView": 1,
      "byteOffset": 219840,
      "componentType": 5126,
      "count": 48,
      "type": "VEC3"
    },
    {
      "bufferView": 0,
      "byteOffset": 123288,
      "componentType": 5125,
      "count": 120,
      "type": "SCALAR"
    }
  ],
  "asset": {
    "generator": "fab-model-conversion",
    "version": "2.0"
  },
  "bufferViews": [
    {
      "buffer": 0,
      "byteLength": 123768,
      "target": 34963
    },
    {
      "buffer": 0,
      "byteLength": 220416,
      "byteOffset": 123768,
      "byteStride": 12,
      "target": 34962
    }
  ],
  "buffers": [
    {
      "byteLength": 344184,
      "uri": "scene.bin"
    }
  ],
  "extensionsUsed": [
    "KHR_materials_emissive_strength"
  ],
  "materials": [
    {
      "doubleSided": true,
      "extensions": {
        "KHR_materials_emissive_strength": {
          "emissiveStrength": 1.1681819106593276
        }
      },
      "name": "material",
      "pbrMetallicRoughness": {
        "baseColorFactor": [
          0.4788319434779161,
          0.007580720134793731,
          0.007580720134793731,
          1.0
        ],
        "metallicFactor": 0.0,
        "roughnessFactor": 0.6
      }
    },
    {
      "doubleSided": true,
      "name": "Tires",
      "pbrMetallicRoughness": {
        "baseColorFactor": [
          0.009363963218763446,
          0.009363963218763446,
          0.009363963218763446,
          1.0
        ],
        "metallicFactor": 0.0,
        "roughnessFactor": 0.6
      }
    },
    {
      "alphaMode": "BLEND",
      "doubleSided": true,
      "name": "Glass",
      "pbrMetallicRoughness": {
        "baseColorFactor": [
          0.0,
          0.0,
          0.0,
          0.9437878695401278
        ],
        "metallicFactor": 0.0,
        "roughnessFactor": 0.6
      }
    },
    {
      "doubleSided": true,
      "name": "Silver",
      "pbrMetallicRoughness": {
        "baseColorFactor": [
          0.2806968848888971,
          0.2806968848888971,
          0.2806968848888971,
          1.0
        ],
        "metallicFactor": 0.0,
        "roughnessFactor": 0.6
      }
    },
    {
      "doubleSided": true,
      "emissiveFactor": [
        0.9919663492033605,
        0.9820125034783163,
        0.9820125034783163
      ],
      "extensions": {
        "KHR_materials_emissive_strength": {
          "emissiveStrength": 1.8954546379320552
        }
      },
      "name": "Front.Lights",
      "pbrMetallicRoughness": {
        "baseColorFactor": [
          0.8,
          0.8,
          0.8,
          1.0
        ],
        "metallicFactor": 0.0,
        "roughnessFactor": 0.6
      }
    },
    {
      "doubleSided": true,
      "emissiveFactor": [
        0.9819772483491759,
        0.0,
        0.0
      ],
      "extensions": {
        "KHR_materials_emissive_strength": {
          "emissiveStrength": 5.834848577325994
        }
      },
      "name": "Back.Lights",
      "pbrMetallicRoughness": {
        "baseColorFactor": [
          1.0,
          0.0,
          0.0,
          1.0
        ],
        "metallicFactor": 0.0,
        "roughnessFactor": 0.6
      }
    }
  ],
  "meshes": [
    {
      "name": "Mitsu.1_Red_0",
      "primitives": [
        {
          "attributes": {
            "NORMAL": 1,
            "POSITION": 0
          },
          "indices": 2,
          "material": 0,
          "mode": 4
        }
      ]
    },
    {
      "name": "Mitsu.1_Tires_0",
      "primitives": [
        {
          "attributes": {
            "NORMAL": 4,
            "POSITION": 3
          },
          "indices": 5,
          "material": 1,
          "mode": 4
        }
      ]
    },
    {
      "name": "Mitsu.1_Glass_0",
      "primitives": [
        {
          "attributes": {
            "NORMAL": 7,
            "POSITION": 6
          },
          "indices": 8,
          "material": 2,
          "mode": 4
        }
      ]
    },
    {
      "name": "Mitsu.1_Silver_0",
      "primitives": [
        {
          "attributes": {
            "NORMAL": 10,
            "POSITION": 9
          },
          "indices": 11,
          "material": 3,
          "mode": 4
        }
      ]
    },
    {
      "name": "Mitsu.1_Front.Lights_0",
      "primitives": [
        {
          "attributes": {
            "NORMAL": 13,
            "POSITION": 12
          },
          "indices": 14,
          "material": 4,
          "mode": 4
        }
      ]
    },
    {
      "name": "Mitsu.1_Back.Lights_0",
      "primitives": [
        {
          "attributes": {
            "NORMAL": 16,
            "POSITION": 15
          },
          "indices": 17,
          "material": 5,
          "mode": 4
        }
      ]
    }
  ],
  "nodes": [
    {
      "children": [
        1
      ],
      "matrix": [
        1.0,
        0.0,
        0.0,
        0.0,
        0.0,
        2.220446049250313e-16,
        -1.0,
        0.0,
        0.0,
        1.0,
        2.220446049250313e-16,
        0.0,
        0.0,
        0.0,
        0.0,
        1.0
      ],
      "name": "FAB converted model"
    },
    {
      "children": [
        2
      ],
      "matrix": [
        1.0,
        0.0,
        0.0,
        0.0,
        0.0,
        0.0,
        1.0,
        0.0,
        0.0,
        -1.0,
        0.0,
        0.0,
        0.0,
        0.0,
        0.0,
        1.0
      ],
      "name": "407165a08237453fba6bb581b9ba0d8f.fbx"
    },
    {
      "children": [
        3
      ],
      "name": "RootNode"
    },
    {
      "children": [
        4,
        5,
        6,
        7,
        8,
        9
      ],
      "matrix": [
        100.0,
        0.0,
        0.0,
        0.0,
        0.0,
        -1.629206793918314e-05,
        -99.99999999999868,
        0.0,
        0.0,
        99.99999999999868,
        -1.629206793918314e-05,
        0.0,
        0.0,
        0.0,
        0.0,
        1.0
      ],
      "name": "Mitsu.1"
    },
    {
      "mesh": 0,
      "name": "Mitsu.1_Red_0"
    },
    {
      "mesh": 1,
      "name": "Mitsu.1_Tires_0"
    },
    {
      "mesh": 2,
      "name": "Mitsu.1_Glass_0"
    },
    {
      "mesh": 3,
      "name": "Mitsu.1_Silver_0"
    },
    {
      "mesh": 4,
      "name": "Mitsu.1_Front.Lights_0"
    },
    {
      "mesh": 5,
      "name": "Mitsu.1_Back.Lights_0"
    }
  ],
  "scene": 0,
  "scenes": [
    {
      "name": "FAB converted",
      "nodes": [
        0
      ]
    }
  ]
}
